ISO-10303-21;
HEADER;
/* Generated by software containing ST-Developer
 * from STEP Tools, Inc. (www.steptools.com) 
 */

FILE_DESCRIPTION(
/* description */ (''),
/* implementation_level */ '2;1');

FILE_NAME(
/* name */ 'Cover_Calculator.step',
/* time_stamp */ '2026-05-02T11:53:29+05:30',
/* author */ (''),
/* organization */ (''),
/* preprocessor_version */ 'ST-DEVELOPER v20.1',
/* originating_system */ 'Autodesk Translation Framework v15.8.0.0',
/* authorisation */ '');

FILE_SCHEMA (('AUTOMOTIVE_DESIGN { 1 0 10303 214 3 1 1 }'));
ENDSEC;

DATA;
#10=MECHANICAL_DESIGN_GEOMETRIC_PRESENTATION_REPRESENTATION('',(#13),#1376);
#11=SHAPE_REPRESENTATION_RELATIONSHIP('SRR','None',#1383,#12);
#12=ADVANCED_BREP_SHAPE_REPRESENTATION('',(#14),#1375);
#13=STYLED_ITEM('',(#1392),#14);
#14=MANIFOLD_SOLID_BREP('Body32',#810);
#15=FACE_BOUND('',#111,.T.);
#16=FACE_BOUND('',#112,.T.);
#17=FACE_BOUND('',#113,.T.);
#18=FACE_BOUND('',#114,.T.);
#19=FACE_BOUND('',#115,.T.);
#20=FACE_BOUND('',#118,.T.);
#21=FACE_BOUND('',#119,.T.);
#22=FACE_BOUND('',#124,.T.);
#23=FACE_BOUND('',#125,.T.);
#24=PLANE('',#827);
#25=PLANE('',#831);
#26=PLANE('',#835);
#27=PLANE('',#836);
#28=PLANE('',#841);
#29=PLANE('',#842);
#30=PLANE('',#847);
#31=PLANE('',#849);
#32=PLANE('',#858);
#33=PLANE('',#862);
#34=PLANE('',#868);
#35=PLANE('',#872);
#36=PLANE('',#873);
#37=PLANE('',#874);
#38=PLANE('',#878);
#39=PLANE('',#882);
#40=PLANE('',#883);
#41=PLANE('',#884);
#42=PLANE('',#885);
#43=PLANE('',#886);
#44=PLANE('',#887);
#45=PLANE('',#888);
#46=PLANE('',#889);
#47=PLANE('',#890);
#48=PLANE('',#891);
#49=PLANE('',#892);
#50=PLANE('',#893);
#51=PLANE('',#894);
#52=PLANE('',#898);
#53=PLANE('',#899);
#54=PLANE('',#902);
#55=PLANE('',#903);
#56=FACE_OUTER_BOUND('',#104,.T.);
#57=FACE_OUTER_BOUND('',#105,.T.);
#58=FACE_OUTER_BOUND('',#106,.T.);
#59=FACE_OUTER_BOUND('',#107,.T.);
#60=FACE_OUTER_BOUND('',#108,.T.);
#61=FACE_OUTER_BOUND('',#109,.T.);
#62=FACE_OUTER_BOUND('',#110,.T.);
#63=FACE_OUTER_BOUND('',#116,.T.);
#64=FACE_OUTER_BOUND('',#117,.T.);
#65=FACE_OUTER_BOUND('',#120,.T.);
#66=FACE_OUTER_BOUND('',#121,.T.);
#67=FACE_OUTER_BOUND('',#122,.T.);
#68=FACE_OUTER_BOUND('',#123,.T.);
#69=FACE_OUTER_BOUND('',#126,.T.);
#70=FACE_OUTER_BOUND('',#127,.T.);
#71=FACE_OUTER_BOUND('',#128,.T.);
#72=FACE_OUTER_BOUND('',#129,.T.);
#73=FACE_OUTER_BOUND('',#130,.T.);
#74=FACE_OUTER_BOUND('',#131,.T.);
#75=FACE_OUTER_BOUND('',#132,.T.);
#76=FACE_OUTER_BOUND('',#133,.T.);
#77=FACE_OUTER_BOUND('',#134,.T.);
#78=FACE_OUTER_BOUND('',#135,.T.);
#79=FACE_OUTER_BOUND('',#136,.T.);
#80=FACE_OUTER_BOUND('',#137,.T.);
#81=FACE_OUTER_BOUND('',#138,.T.);
#82=FACE_OUTER_BOUND('',#139,.T.);
#83=FACE_OUTER_BOUND('',#140,.T.);
#84=FACE_OUTER_BOUND('',#141,.T.);
#85=FACE_OUTER_BOUND('',#142,.T.);
#86=FACE_OUTER_BOUND('',#143,.T.);
#87=FACE_OUTER_BOUND('',#144,.T.);
#88=FACE_OUTER_BOUND('',#145,.T.);
#89=FACE_OUTER_BOUND('',#146,.T.);
#90=FACE_OUTER_BOUND('',#147,.T.);
#91=FACE_OUTER_BOUND('',#148,.T.);
#92=FACE_OUTER_BOUND('',#149,.T.);
#93=FACE_OUTER_BOUND('',#150,.T.);
#94=FACE_OUTER_BOUND('',#151,.T.);
#95=FACE_OUTER_BOUND('',#152,.T.);
#96=FACE_OUTER_BOUND('',#153,.T.);
#97=FACE_OUTER_BOUND('',#154,.T.);
#98=FACE_OUTER_BOUND('',#155,.T.);
#99=FACE_OUTER_BOUND('',#156,.T.);
#100=FACE_OUTER_BOUND('',#157,.T.);
#101=FACE_OUTER_BOUND('',#158,.T.);
#102=FACE_OUTER_BOUND('',#159,.T.);
#103=FACE_OUTER_BOUND('',#160,.T.);
#104=EDGE_LOOP('',(#528,#529,#530,#531));
#105=EDGE_LOOP('',(#532));
#106=EDGE_LOOP('',(#533,#534,#535,#536));
#107=EDGE_LOOP('',(#537));
#108=EDGE_LOOP('',(#538,#539,#540,#541));
#109=EDGE_LOOP('',(#542));
#110=EDGE_LOOP('',(#543,#544,#545,#546));
#111=EDGE_LOOP('',(#547));
#112=EDGE_LOOP('',(#548));
#113=EDGE_LOOP('',(#549));
#114=EDGE_LOOP('',(#550,#551,#552,#553,#554,#555,#556));
#115=EDGE_LOOP('',(#557));
#116=EDGE_LOOP('',(#558,#559,#560,#561));
#117=EDGE_LOOP('',(#562,#563,#564,#565,#566));
#118=EDGE_LOOP('',(#567,#568,#569,#570));
#119=EDGE_LOOP('',(#571,#572,#573,#574));
#120=EDGE_LOOP('',(#575,#576,#577,#578,#579));
#121=EDGE_LOOP('',(#580,#581,#582,#583));
#122=EDGE_LOOP('',(#584,#585,#586,#587,#588));
#123=EDGE_LOOP('',(#589,#590,#591,#592,#593));
#124=EDGE_LOOP('',(#594,#595,#596,#597));
#125=EDGE_LOOP('',(#598,#599,#600,#601));
#126=EDGE_LOOP('',(#602,#603,#604,#605));
#127=EDGE_LOOP('',(#606,#607,#608,#609));
#128=EDGE_LOOP('',(#610,#611,#612,#613));
#129=EDGE_LOOP('',(#614,#615,#616,#617,#618,#619,#620,#621));
#130=EDGE_LOOP('',(#622,#623,#624,#625,#626,#627));
#131=EDGE_LOOP('',(#628,#629,#630,#631));
#132=EDGE_LOOP('',(#632,#633,#634,#635));
#133=EDGE_LOOP('',(#636,#637,#638,#639));
#134=EDGE_LOOP('',(#640,#641));
#135=EDGE_LOOP('',(#642,#643,#644,#645));
#136=EDGE_LOOP('',(#646,#647));
#137=EDGE_LOOP('',(#648,#649,#650,#651,#652,#653));
#138=EDGE_LOOP('',(#654,#655));
#139=EDGE_LOOP('',(#656,#657,#658,#659));
#140=EDGE_LOOP('',(#660,#661));
#141=EDGE_LOOP('',(#662,#663,#664,#665));
#142=EDGE_LOOP('',(#666,#667));
#143=EDGE_LOOP('',(#668,#669));
#144=EDGE_LOOP('',(#670,#671,#672,#673));
#145=EDGE_LOOP('',(#674,#675,#676,#677));
#146=EDGE_LOOP('',(#678,#679,#680,#681));
#147=EDGE_LOOP('',(#682,#683,#684,#685));
#148=EDGE_LOOP('',(#686,#687,#688,#689));
#149=EDGE_LOOP('',(#690,#691,#692,#693));
#150=EDGE_LOOP('',(#694,#695,#696,#697));
#151=EDGE_LOOP('',(#698,#699,#700,#701,#702,#703));
#152=EDGE_LOOP('',(#704,#705,#706,#707,#708,#709,#710,#711,#712,#713,#714,
#715));
#153=EDGE_LOOP('',(#716,#717,#718,#719,#720,#721));
#154=EDGE_LOOP('',(#722,#723,#724,#725,#726,#727,#728));
#155=EDGE_LOOP('',(#729,#730,#731,#732));
#156=EDGE_LOOP('',(#733,#734));
#157=EDGE_LOOP('',(#735,#736));
#158=EDGE_LOOP('',(#737,#738,#739,#740));
#159=EDGE_LOOP('',(#741));
#160=EDGE_LOOP('',(#742,#743,#744,#745));
#161=LINE('',#1148,#238);
#162=LINE('',#1155,#239);
#163=LINE('',#1162,#240);
#164=LINE('',#1168,#241);
#165=LINE('',#1170,#242);
#166=LINE('',#1172,#243);
#167=LINE('',#1173,#244);
#168=LINE('',#1176,#245);
#169=LINE('',#1178,#246);
#170=LINE('',#1180,#247);
#171=LINE('',#1182,#248);
#172=LINE('',#1184,#249);
#173=LINE('',#1186,#250);
#174=LINE('',#1187,#251);
#175=LINE('',#1195,#252);
#176=LINE('',#1198,#253);
#177=LINE('',#1201,#254);
#178=LINE('',#1203,#255);
#179=LINE('',#1205,#256);
#180=LINE('',#1206,#257);
#181=LINE('',#1209,#258);
#182=LINE('',#1211,#259);
#183=LINE('',#1213,#260);
#184=LINE('',#1214,#261);
#185=LINE('',#1217,#262);
#186=LINE('',#1219,#263);
#187=LINE('',#1221,#264);
#188=LINE('',#1222,#265);
#189=LINE('',#1225,#266);
#190=LINE('',#1228,#267);
#191=LINE('',#1234,#268);
#192=LINE('',#1237,#269);
#193=LINE('',#1240,#270);
#194=LINE('',#1242,#271);
#195=LINE('',#1245,#272);
#196=LINE('',#1248,#273);
#197=LINE('',#1250,#274);
#198=LINE('',#1251,#275);
#199=LINE('',#1254,#276);
#200=LINE('',#1256,#277);
#201=LINE('',#1258,#278);
#202=LINE('',#1259,#279);
#203=LINE('',#1262,#280);
#204=LINE('',#1264,#281);
#205=LINE('',#1266,#282);
#206=LINE('',#1267,#283);
#207=LINE('',#1272,#284);
#208=LINE('',#1279,#285);
#209=LINE('',#1284,#286);
#210=LINE('',#1285,#287);
#211=LINE('',#1288,#288);
#212=LINE('',#1292,#289);
#213=LINE('',#1296,#290);
#214=LINE('',#1298,#291);
#215=LINE('',#1299,#292);
#216=LINE('',#1301,#293);
#217=LINE('',#1305,#294);
#218=LINE('',#1309,#295);
#219=LINE('',#1316,#296);
#220=LINE('',#1330,#297);
#221=LINE('',#1331,#298);
#222=LINE('',#1332,#299);
#223=LINE('',#1335,#300);
#224=LINE('',#1336,#301);
#225=LINE('',#1339,#302);
#226=LINE('',#1340,#303);
#227=LINE('',#1343,#304);
#228=LINE('',#1344,#305);
#229=LINE('',#1347,#306);
#230=LINE('',#1348,#307);
#231=LINE('',#1351,#308);
#232=LINE('',#1352,#309);
#233=LINE('',#1354,#310);
#234=LINE('',#1356,#311);
#235=LINE('',#1358,#312);
#236=LINE('',#1359,#313);
#237=LINE('',#1370,#314);
#238=VECTOR('',#910,6.);
#239=VECTOR('',#919,6.);
#240=VECTOR('',#928,6.00000000000001);
#241=VECTOR('',#935,10.);
#242=VECTOR('',#936,10.);
#243=VECTOR('',#937,10.);
#244=VECTOR('',#938,10.);
#245=VECTOR('',#939,10.);
#246=VECTOR('',#940,10.);
#247=VECTOR('',#941,10.);
#248=VECTOR('',#942,10.);
#249=VECTOR('',#943,10.);
#250=VECTOR('',#944,10.);
#251=VECTOR('',#945,10.);
#252=VECTOR('',#952,10.);
#253=VECTOR('',#955,10.);
#254=VECTOR('',#958,10.);
#255=VECTOR('',#959,10.);
#256=VECTOR('',#960,10.);
#257=VECTOR('',#961,10.);
#258=VECTOR('',#962,10.);
#259=VECTOR('',#963,10.);
#260=VECTOR('',#964,10.);
#261=VECTOR('',#965,10.);
#262=VECTOR('',#966,10.);
#263=VECTOR('',#967,10.);
#264=VECTOR('',#968,10.);
#265=VECTOR('',#969,10.);
#266=VECTOR('',#972,10.);
#267=VECTOR('',#975,10.);
#268=VECTOR('',#980,10.);
#269=VECTOR('',#983,10.);
#270=VECTOR('',#986,10.);
#271=VECTOR('',#987,10.);
#272=VECTOR('',#990,10.);
#273=VECTOR('',#993,10.);
#274=VECTOR('',#994,10.);
#275=VECTOR('',#995,10.);
#276=VECTOR('',#996,10.);
#277=VECTOR('',#997,10.);
#278=VECTOR('',#998,10.);
#279=VECTOR('',#999,10.);
#280=VECTOR('',#1000,10.);
#281=VECTOR('',#1001,10.);
#282=VECTOR('',#1002,10.);
#283=VECTOR('',#1003,10.);
#284=VECTOR('',#1008,10.);
#285=VECTOR('',#1017,10.);
#286=VECTOR('',#1022,10.);
#287=VECTOR('',#1023,10.);
#288=VECTOR('',#1026,10.);
#289=VECTOR('',#1029,10.);
#290=VECTOR('',#1034,10.);
#291=VECTOR('',#1037,10.);
#292=VECTOR('',#1038,10.);
#293=VECTOR('',#1041,10.);
#294=VECTOR('',#1046,10.);
#295=VECTOR('',#1051,10.);
#296=VECTOR('',#1064,10.);
#297=VECTOR('',#1087,10.);
#298=VECTOR('',#1088,10.);
#299=VECTOR('',#1089,10.);
#300=VECTOR('',#1092,10.);
#301=VECTOR('',#1093,10.);
#302=VECTOR('',#1096,10.);
#303=VECTOR('',#1097,10.);
#304=VECTOR('',#1100,10.);
#305=VECTOR('',#1101,10.);
#306=VECTOR('',#1104,10.);
#307=VECTOR('',#1105,10.);
#308=VECTOR('',#1108,10.);
#309=VECTOR('',#1109,10.);
#310=VECTOR('',#1112,10.);
#311=VECTOR('',#1115,10.);
#312=VECTOR('',#1118,10.);
#313=VECTOR('',#1119,10.);
#314=VECTOR('',#1138,6.00000000000001);
#315=CIRCLE('',#825,6.);
#316=CIRCLE('',#826,6.);
#317=CIRCLE('',#829,6.);
#318=CIRCLE('',#830,6.);
#319=CIRCLE('',#833,6.00000000000001);
#320=CIRCLE('',#834,6.00000000000001);
#321=CIRCLE('',#837,6.00000000000001);
#322=CIRCLE('',#839,1.49999999999998);
#323=CIRCLE('',#840,1.50000000000052);
#324=CIRCLE('',#843,2.);
#325=CIRCLE('',#845,1.5);
#326=CIRCLE('',#846,1.5);
#327=CIRCLE('',#848,2.);
#328=CIRCLE('',#851,4.5);
#329=CIRCLE('',#852,4.5);
#330=CIRCLE('',#854,4.5);
#331=CIRCLE('',#855,4.5);
#332=CIRCLE('',#857,2.);
#333=CIRCLE('',#859,2.);
#334=CIRCLE('',#860,8.);
#335=CIRCLE('',#861,8.);
#336=CIRCLE('',#865,8.);
#337=CIRCLE('',#867,8.);
#338=CIRCLE('',#869,1.);
#339=CIRCLE('',#871,1.);
#340=CIRCLE('',#875,1.);
#341=CIRCLE('',#877,1.);
#342=CIRCLE('',#880,4.49999999999999);
#343=CIRCLE('',#881,4.49999999999999);
#344=CIRCLE('',#896,4.5);
#345=CIRCLE('',#897,4.5);
#346=CIRCLE('',#901,6.00000000000001);
#347=VERTEX_POINT('',#1145);
#348=VERTEX_POINT('',#1147);
#349=VERTEX_POINT('',#1152);
#350=VERTEX_POINT('',#1154);
#351=VERTEX_POINT('',#1159);
#352=VERTEX_POINT('',#1161);
#353=VERTEX_POINT('',#1166);
#354=VERTEX_POINT('',#1167);
#355=VERTEX_POINT('',#1169);
#356=VERTEX_POINT('',#1171);
#357=VERTEX_POINT('',#1174);
#358=VERTEX_POINT('',#1175);
#359=VERTEX_POINT('',#1177);
#360=VERTEX_POINT('',#1179);
#361=VERTEX_POINT('',#1181);
#362=VERTEX_POINT('',#1183);
#363=VERTEX_POINT('',#1185);
#364=VERTEX_POINT('',#1188);
#365=VERTEX_POINT('',#1191);
#366=VERTEX_POINT('',#1192);
#367=VERTEX_POINT('',#1194);
#368=VERTEX_POINT('',#1196);
#369=VERTEX_POINT('',#1200);
#370=VERTEX_POINT('',#1202);
#371=VERTEX_POINT('',#1204);
#372=VERTEX_POINT('',#1207);
#373=VERTEX_POINT('',#1208);
#374=VERTEX_POINT('',#1210);
#375=VERTEX_POINT('',#1212);
#376=VERTEX_POINT('',#1215);
#377=VERTEX_POINT('',#1216);
#378=VERTEX_POINT('',#1218);
#379=VERTEX_POINT('',#1220);
#380=VERTEX_POINT('',#1224);
#381=VERTEX_POINT('',#1226);
#382=VERTEX_POINT('',#1230);
#383=VERTEX_POINT('',#1231);
#384=VERTEX_POINT('',#1233);
#385=VERTEX_POINT('',#1235);
#386=VERTEX_POINT('',#1239);
#387=VERTEX_POINT('',#1241);
#388=VERTEX_POINT('',#1243);
#389=VERTEX_POINT('',#1247);
#390=VERTEX_POINT('',#1249);
#391=VERTEX_POINT('',#1252);
#392=VERTEX_POINT('',#1253);
#393=VERTEX_POINT('',#1255);
#394=VERTEX_POINT('',#1257);
#395=VERTEX_POINT('',#1260);
#396=VERTEX_POINT('',#1261);
#397=VERTEX_POINT('',#1263);
#398=VERTEX_POINT('',#1265);
#399=VERTEX_POINT('',#1269);
#400=VERTEX_POINT('',#1271);
#401=VERTEX_POINT('',#1275);
#402=VERTEX_POINT('',#1277);
#403=VERTEX_POINT('',#1281);
#404=VERTEX_POINT('',#1282);
#405=VERTEX_POINT('',#1287);
#406=VERTEX_POINT('',#1289);
#407=VERTEX_POINT('',#1291);
#408=VERTEX_POINT('',#1294);
#409=VERTEX_POINT('',#1303);
#410=VERTEX_POINT('',#1307);
#411=VERTEX_POINT('',#1328);
#412=VERTEX_POINT('',#1329);
#413=VERTEX_POINT('',#1334);
#414=VERTEX_POINT('',#1338);
#415=VERTEX_POINT('',#1342);
#416=VERTEX_POINT('',#1346);
#417=VERTEX_POINT('',#1350);
#418=VERTEX_POINT('',#1368);
#419=EDGE_CURVE('',#347,#347,#315,.T.);
#420=EDGE_CURVE('',#347,#348,#161,.T.);
#421=EDGE_CURVE('',#348,#348,#316,.T.);
#422=EDGE_CURVE('',#349,#349,#317,.T.);
#423=EDGE_CURVE('',#349,#350,#162,.T.);
#424=EDGE_CURVE('',#350,#350,#318,.T.);
#425=EDGE_CURVE('',#351,#351,#319,.T.);
#426=EDGE_CURVE('',#351,#352,#163,.T.);
#427=EDGE_CURVE('',#352,#352,#320,.T.);
#428=EDGE_CURVE('',#353,#354,#164,.T.);
#429=EDGE_CURVE('',#353,#355,#165,.T.);
#430=EDGE_CURVE('',#356,#355,#166,.T.);
#431=EDGE_CURVE('',#356,#354,#167,.T.);
#432=EDGE_CURVE('',#357,#358,#168,.T.);
#433=EDGE_CURVE('',#358,#359,#169,.T.);
#434=EDGE_CURVE('',#359,#360,#170,.T.);
#435=EDGE_CURVE('',#360,#361,#171,.T.);
#436=EDGE_CURVE('',#361,#362,#172,.T.);
#437=EDGE_CURVE('',#362,#363,#173,.T.);
#438=EDGE_CURVE('',#363,#357,#174,.T.);
#439=EDGE_CURVE('',#364,#364,#321,.T.);
#440=EDGE_CURVE('',#365,#366,#322,.T.);
#441=EDGE_CURVE('',#366,#367,#175,.T.);
#442=EDGE_CURVE('',#367,#368,#323,.T.);
#443=EDGE_CURVE('',#368,#365,#176,.T.);
#444=EDGE_CURVE('',#369,#366,#177,.T.);
#445=EDGE_CURVE('',#370,#369,#178,.T.);
#446=EDGE_CURVE('',#371,#370,#179,.T.);
#447=EDGE_CURVE('',#371,#367,#180,.T.);
#448=EDGE_CURVE('',#372,#373,#181,.T.);
#449=EDGE_CURVE('',#374,#372,#182,.T.);
#450=EDGE_CURVE('',#375,#374,#183,.T.);
#451=EDGE_CURVE('',#373,#375,#184,.T.);
#452=EDGE_CURVE('',#376,#377,#185,.T.);
#453=EDGE_CURVE('',#377,#378,#186,.T.);
#454=EDGE_CURVE('',#378,#379,#187,.T.);
#455=EDGE_CURVE('',#379,#376,#188,.T.);
#456=EDGE_CURVE('',#380,#365,#189,.T.);
#457=EDGE_CURVE('',#381,#380,#324,.F.);
#458=EDGE_CURVE('',#381,#369,#190,.T.);
#459=EDGE_CURVE('',#382,#383,#325,.T.);
#460=EDGE_CURVE('',#383,#384,#191,.T.);
#461=EDGE_CURVE('',#384,#385,#326,.T.);
#462=EDGE_CURVE('',#385,#382,#192,.T.);
#463=EDGE_CURVE('',#386,#384,#193,.T.);
#464=EDGE_CURVE('',#386,#387,#194,.T.);
#465=EDGE_CURVE('',#388,#387,#327,.F.);
#466=EDGE_CURVE('',#388,#385,#195,.T.);
#467=EDGE_CURVE('',#389,#383,#196,.T.);
#468=EDGE_CURVE('',#390,#389,#197,.T.);
#469=EDGE_CURVE('',#390,#386,#198,.T.);
#470=EDGE_CURVE('',#391,#392,#199,.T.);
#471=EDGE_CURVE('',#392,#393,#200,.T.);
#472=EDGE_CURVE('',#393,#394,#201,.T.);
#473=EDGE_CURVE('',#394,#391,#202,.T.);
#474=EDGE_CURVE('',#395,#396,#203,.T.);
#475=EDGE_CURVE('',#396,#397,#204,.T.);
#476=EDGE_CURVE('',#397,#398,#205,.T.);
#477=EDGE_CURVE('',#398,#395,#206,.T.);
#478=EDGE_CURVE('',#399,#370,#328,.T.);
#479=EDGE_CURVE('',#399,#400,#207,.T.);
#480=EDGE_CURVE('',#400,#371,#329,.T.);
#481=EDGE_CURVE('',#390,#401,#330,.T.);
#482=EDGE_CURVE('',#389,#402,#331,.T.);
#483=EDGE_CURVE('',#402,#401,#208,.T.);
#484=EDGE_CURVE('',#403,#404,#332,.T.);
#485=EDGE_CURVE('',#404,#388,#209,.T.);
#486=EDGE_CURVE('',#387,#403,#210,.T.);
#487=EDGE_CURVE('',#405,#403,#211,.T.);
#488=EDGE_CURVE('',#406,#405,#333,.T.);
#489=EDGE_CURVE('',#407,#406,#212,.T.);
#490=EDGE_CURVE('',#354,#407,#334,.T.);
#491=EDGE_CURVE('',#408,#356,#335,.T.);
#492=EDGE_CURVE('',#404,#408,#213,.T.);
#493=EDGE_CURVE('',#386,#369,#214,.T.);
#494=EDGE_CURVE('',#405,#381,#215,.T.);
#495=EDGE_CURVE('',#380,#406,#216,.T.);
#496=EDGE_CURVE('',#409,#353,#336,.T.);
#497=EDGE_CURVE('',#407,#409,#217,.T.);
#498=EDGE_CURVE('',#355,#410,#337,.T.);
#499=EDGE_CURVE('',#410,#408,#218,.T.);
#500=EDGE_CURVE('',#377,#376,#338,.T.);
#501=EDGE_CURVE('',#379,#378,#339,.T.);
#502=EDGE_CURVE('',#399,#401,#219,.T.);
#503=EDGE_CURVE('',#393,#392,#340,.T.);
#504=EDGE_CURVE('',#391,#394,#341,.T.);
#505=EDGE_CURVE('',#395,#398,#342,.T.);
#506=EDGE_CURVE('',#397,#396,#343,.T.);
#507=EDGE_CURVE('',#411,#412,#220,.T.);
#508=EDGE_CURVE('',#411,#363,#221,.T.);
#509=EDGE_CURVE('',#412,#362,#222,.T.);
#510=EDGE_CURVE('',#413,#411,#223,.T.);
#511=EDGE_CURVE('',#413,#357,#224,.T.);
#512=EDGE_CURVE('',#414,#413,#225,.T.);
#513=EDGE_CURVE('',#414,#358,#226,.T.);
#514=EDGE_CURVE('',#412,#415,#227,.T.);
#515=EDGE_CURVE('',#415,#361,#228,.T.);
#516=EDGE_CURVE('',#415,#416,#229,.T.);
#517=EDGE_CURVE('',#416,#360,#230,.T.);
#518=EDGE_CURVE('',#416,#417,#231,.T.);
#519=EDGE_CURVE('',#417,#359,#232,.T.);
#520=EDGE_CURVE('',#417,#414,#233,.T.);
#521=EDGE_CURVE('',#382,#410,#234,.T.);
#522=EDGE_CURVE('',#400,#402,#235,.T.);
#523=EDGE_CURVE('',#368,#409,#236,.T.);
#524=EDGE_CURVE('',#373,#375,#344,.T.);
#525=EDGE_CURVE('',#374,#372,#345,.T.);
#526=EDGE_CURVE('',#418,#418,#346,.T.);
#527=EDGE_CURVE('',#418,#364,#237,.T.);
#528=ORIENTED_EDGE('',*,*,#419,.F.);
#529=ORIENTED_EDGE('',*,*,#420,.T.);
#530=ORIENTED_EDGE('',*,*,#421,.F.);
#531=ORIENTED_EDGE('',*,*,#420,.F.);
#532=ORIENTED_EDGE('',*,*,#419,.T.);
#533=ORIENTED_EDGE('',*,*,#422,.F.);
#534=ORIENTED_EDGE('',*,*,#423,.T.);
#535=ORIENTED_EDGE('',*,*,#424,.F.);
#536=ORIENTED_EDGE('',*,*,#423,.F.);
#537=ORIENTED_EDGE('',*,*,#422,.T.);
#538=ORIENTED_EDGE('',*,*,#425,.F.);
#539=ORIENTED_EDGE('',*,*,#426,.T.);
#540=ORIENTED_EDGE('',*,*,#427,.F.);
#541=ORIENTED_EDGE('',*,*,#426,.F.);
#542=ORIENTED_EDGE('',*,*,#425,.T.);
#543=ORIENTED_EDGE('',*,*,#428,.F.);
#544=ORIENTED_EDGE('',*,*,#429,.T.);
#545=ORIENTED_EDGE('',*,*,#430,.F.);
#546=ORIENTED_EDGE('',*,*,#431,.T.);
#547=ORIENTED_EDGE('',*,*,#421,.T.);
#548=ORIENTED_EDGE('',*,*,#424,.T.);
#549=ORIENTED_EDGE('',*,*,#427,.T.);
#550=ORIENTED_EDGE('',*,*,#432,.T.);
#551=ORIENTED_EDGE('',*,*,#433,.T.);
#552=ORIENTED_EDGE('',*,*,#434,.T.);
#553=ORIENTED_EDGE('',*,*,#435,.T.);
#554=ORIENTED_EDGE('',*,*,#436,.T.);
#555=ORIENTED_EDGE('',*,*,#437,.T.);
#556=ORIENTED_EDGE('',*,*,#438,.T.);
#557=ORIENTED_EDGE('',*,*,#439,.F.);
#558=ORIENTED_EDGE('',*,*,#440,.T.);
#559=ORIENTED_EDGE('',*,*,#441,.T.);
#560=ORIENTED_EDGE('',*,*,#442,.T.);
#561=ORIENTED_EDGE('',*,*,#443,.T.);
#562=ORIENTED_EDGE('',*,*,#441,.F.);
#563=ORIENTED_EDGE('',*,*,#444,.F.);
#564=ORIENTED_EDGE('',*,*,#445,.F.);
#565=ORIENTED_EDGE('',*,*,#446,.F.);
#566=ORIENTED_EDGE('',*,*,#447,.T.);
#567=ORIENTED_EDGE('',*,*,#448,.F.);
#568=ORIENTED_EDGE('',*,*,#449,.F.);
#569=ORIENTED_EDGE('',*,*,#450,.F.);
#570=ORIENTED_EDGE('',*,*,#451,.F.);
#571=ORIENTED_EDGE('',*,*,#452,.T.);
#572=ORIENTED_EDGE('',*,*,#453,.T.);
#573=ORIENTED_EDGE('',*,*,#454,.T.);
#574=ORIENTED_EDGE('',*,*,#455,.T.);
#575=ORIENTED_EDGE('',*,*,#440,.F.);
#576=ORIENTED_EDGE('',*,*,#456,.F.);
#577=ORIENTED_EDGE('',*,*,#457,.F.);
#578=ORIENTED_EDGE('',*,*,#458,.T.);
#579=ORIENTED_EDGE('',*,*,#444,.T.);
#580=ORIENTED_EDGE('',*,*,#459,.T.);
#581=ORIENTED_EDGE('',*,*,#460,.T.);
#582=ORIENTED_EDGE('',*,*,#461,.T.);
#583=ORIENTED_EDGE('',*,*,#462,.T.);
#584=ORIENTED_EDGE('',*,*,#461,.F.);
#585=ORIENTED_EDGE('',*,*,#463,.F.);
#586=ORIENTED_EDGE('',*,*,#464,.T.);
#587=ORIENTED_EDGE('',*,*,#465,.F.);
#588=ORIENTED_EDGE('',*,*,#466,.T.);
#589=ORIENTED_EDGE('',*,*,#460,.F.);
#590=ORIENTED_EDGE('',*,*,#467,.F.);
#591=ORIENTED_EDGE('',*,*,#468,.F.);
#592=ORIENTED_EDGE('',*,*,#469,.T.);
#593=ORIENTED_EDGE('',*,*,#463,.T.);
#594=ORIENTED_EDGE('',*,*,#470,.T.);
#595=ORIENTED_EDGE('',*,*,#471,.T.);
#596=ORIENTED_EDGE('',*,*,#472,.T.);
#597=ORIENTED_EDGE('',*,*,#473,.T.);
#598=ORIENTED_EDGE('',*,*,#474,.T.);
#599=ORIENTED_EDGE('',*,*,#475,.T.);
#600=ORIENTED_EDGE('',*,*,#476,.T.);
#601=ORIENTED_EDGE('',*,*,#477,.T.);
#602=ORIENTED_EDGE('',*,*,#478,.F.);
#603=ORIENTED_EDGE('',*,*,#479,.T.);
#604=ORIENTED_EDGE('',*,*,#480,.T.);
#605=ORIENTED_EDGE('',*,*,#446,.T.);
#606=ORIENTED_EDGE('',*,*,#481,.F.);
#607=ORIENTED_EDGE('',*,*,#468,.T.);
#608=ORIENTED_EDGE('',*,*,#482,.T.);
#609=ORIENTED_EDGE('',*,*,#483,.T.);
#610=ORIENTED_EDGE('',*,*,#484,.T.);
#611=ORIENTED_EDGE('',*,*,#485,.T.);
#612=ORIENTED_EDGE('',*,*,#465,.T.);
#613=ORIENTED_EDGE('',*,*,#486,.T.);
#614=ORIENTED_EDGE('',*,*,#484,.F.);
#615=ORIENTED_EDGE('',*,*,#487,.F.);
#616=ORIENTED_EDGE('',*,*,#488,.F.);
#617=ORIENTED_EDGE('',*,*,#489,.F.);
#618=ORIENTED_EDGE('',*,*,#490,.F.);
#619=ORIENTED_EDGE('',*,*,#431,.F.);
#620=ORIENTED_EDGE('',*,*,#491,.F.);
#621=ORIENTED_EDGE('',*,*,#492,.F.);
#622=ORIENTED_EDGE('',*,*,#486,.F.);
#623=ORIENTED_EDGE('',*,*,#464,.F.);
#624=ORIENTED_EDGE('',*,*,#493,.T.);
#625=ORIENTED_EDGE('',*,*,#458,.F.);
#626=ORIENTED_EDGE('',*,*,#494,.F.);
#627=ORIENTED_EDGE('',*,*,#487,.T.);
#628=ORIENTED_EDGE('',*,*,#488,.T.);
#629=ORIENTED_EDGE('',*,*,#494,.T.);
#630=ORIENTED_EDGE('',*,*,#457,.T.);
#631=ORIENTED_EDGE('',*,*,#495,.T.);
#632=ORIENTED_EDGE('',*,*,#496,.T.);
#633=ORIENTED_EDGE('',*,*,#428,.T.);
#634=ORIENTED_EDGE('',*,*,#490,.T.);
#635=ORIENTED_EDGE('',*,*,#497,.T.);
#636=ORIENTED_EDGE('',*,*,#491,.T.);
#637=ORIENTED_EDGE('',*,*,#430,.T.);
#638=ORIENTED_EDGE('',*,*,#498,.T.);
#639=ORIENTED_EDGE('',*,*,#499,.T.);
#640=ORIENTED_EDGE('',*,*,#500,.F.);
#641=ORIENTED_EDGE('',*,*,#452,.F.);
#642=ORIENTED_EDGE('',*,*,#500,.T.);
#643=ORIENTED_EDGE('',*,*,#455,.F.);
#644=ORIENTED_EDGE('',*,*,#501,.T.);
#645=ORIENTED_EDGE('',*,*,#453,.F.);
#646=ORIENTED_EDGE('',*,*,#501,.F.);
#647=ORIENTED_EDGE('',*,*,#454,.F.);
#648=ORIENTED_EDGE('',*,*,#478,.T.);
#649=ORIENTED_EDGE('',*,*,#445,.T.);
#650=ORIENTED_EDGE('',*,*,#493,.F.);
#651=ORIENTED_EDGE('',*,*,#469,.F.);
#652=ORIENTED_EDGE('',*,*,#481,.T.);
#653=ORIENTED_EDGE('',*,*,#502,.F.);
#654=ORIENTED_EDGE('',*,*,#503,.F.);
#655=ORIENTED_EDGE('',*,*,#471,.F.);
#656=ORIENTED_EDGE('',*,*,#503,.T.);
#657=ORIENTED_EDGE('',*,*,#470,.F.);
#658=ORIENTED_EDGE('',*,*,#504,.T.);
#659=ORIENTED_EDGE('',*,*,#472,.F.);
#660=ORIENTED_EDGE('',*,*,#504,.F.);
#661=ORIENTED_EDGE('',*,*,#473,.F.);
#662=ORIENTED_EDGE('',*,*,#505,.T.);
#663=ORIENTED_EDGE('',*,*,#476,.F.);
#664=ORIENTED_EDGE('',*,*,#506,.T.);
#665=ORIENTED_EDGE('',*,*,#474,.F.);
#666=ORIENTED_EDGE('',*,*,#505,.F.);
#667=ORIENTED_EDGE('',*,*,#477,.F.);
#668=ORIENTED_EDGE('',*,*,#506,.F.);
#669=ORIENTED_EDGE('',*,*,#475,.F.);
#670=ORIENTED_EDGE('',*,*,#507,.F.);
#671=ORIENTED_EDGE('',*,*,#508,.T.);
#672=ORIENTED_EDGE('',*,*,#437,.F.);
#673=ORIENTED_EDGE('',*,*,#509,.F.);
#674=ORIENTED_EDGE('',*,*,#510,.F.);
#675=ORIENTED_EDGE('',*,*,#511,.T.);
#676=ORIENTED_EDGE('',*,*,#438,.F.);
#677=ORIENTED_EDGE('',*,*,#508,.F.);
#678=ORIENTED_EDGE('',*,*,#512,.F.);
#679=ORIENTED_EDGE('',*,*,#513,.T.);
#680=ORIENTED_EDGE('',*,*,#432,.F.);
#681=ORIENTED_EDGE('',*,*,#511,.F.);
#682=ORIENTED_EDGE('',*,*,#514,.F.);
#683=ORIENTED_EDGE('',*,*,#509,.T.);
#684=ORIENTED_EDGE('',*,*,#436,.F.);
#685=ORIENTED_EDGE('',*,*,#515,.F.);
#686=ORIENTED_EDGE('',*,*,#516,.F.);
#687=ORIENTED_EDGE('',*,*,#515,.T.);
#688=ORIENTED_EDGE('',*,*,#435,.F.);
#689=ORIENTED_EDGE('',*,*,#517,.F.);
#690=ORIENTED_EDGE('',*,*,#518,.F.);
#691=ORIENTED_EDGE('',*,*,#517,.T.);
#692=ORIENTED_EDGE('',*,*,#434,.F.);
#693=ORIENTED_EDGE('',*,*,#519,.F.);
#694=ORIENTED_EDGE('',*,*,#520,.F.);
#695=ORIENTED_EDGE('',*,*,#519,.T.);
#696=ORIENTED_EDGE('',*,*,#433,.F.);
#697=ORIENTED_EDGE('',*,*,#513,.F.);
#698=ORIENTED_EDGE('',*,*,#462,.F.);
#699=ORIENTED_EDGE('',*,*,#466,.F.);
#700=ORIENTED_EDGE('',*,*,#485,.F.);
#701=ORIENTED_EDGE('',*,*,#492,.T.);
#702=ORIENTED_EDGE('',*,*,#499,.F.);
#703=ORIENTED_EDGE('',*,*,#521,.F.);
#704=ORIENTED_EDGE('',*,*,#442,.F.);
#705=ORIENTED_EDGE('',*,*,#447,.F.);
#706=ORIENTED_EDGE('',*,*,#480,.F.);
#707=ORIENTED_EDGE('',*,*,#522,.T.);
#708=ORIENTED_EDGE('',*,*,#482,.F.);
#709=ORIENTED_EDGE('',*,*,#467,.T.);
#710=ORIENTED_EDGE('',*,*,#459,.F.);
#711=ORIENTED_EDGE('',*,*,#521,.T.);
#712=ORIENTED_EDGE('',*,*,#498,.F.);
#713=ORIENTED_EDGE('',*,*,#429,.F.);
#714=ORIENTED_EDGE('',*,*,#496,.F.);
#715=ORIENTED_EDGE('',*,*,#523,.F.);
#716=ORIENTED_EDGE('',*,*,#443,.F.);
#717=ORIENTED_EDGE('',*,*,#523,.T.);
#718=ORIENTED_EDGE('',*,*,#497,.F.);
#719=ORIENTED_EDGE('',*,*,#489,.T.);
#720=ORIENTED_EDGE('',*,*,#495,.F.);
#721=ORIENTED_EDGE('',*,*,#456,.T.);
#722=ORIENTED_EDGE('',*,*,#512,.T.);
#723=ORIENTED_EDGE('',*,*,#510,.T.);
#724=ORIENTED_EDGE('',*,*,#507,.T.);
#725=ORIENTED_EDGE('',*,*,#514,.T.);
#726=ORIENTED_EDGE('',*,*,#516,.T.);
#727=ORIENTED_EDGE('',*,*,#518,.T.);
#728=ORIENTED_EDGE('',*,*,#520,.T.);
#729=ORIENTED_EDGE('',*,*,#524,.T.);
#730=ORIENTED_EDGE('',*,*,#450,.T.);
#731=ORIENTED_EDGE('',*,*,#525,.T.);
#732=ORIENTED_EDGE('',*,*,#448,.T.);
#733=ORIENTED_EDGE('',*,*,#524,.F.);
#734=ORIENTED_EDGE('',*,*,#451,.T.);
#735=ORIENTED_EDGE('',*,*,#525,.F.);
#736=ORIENTED_EDGE('',*,*,#449,.T.);
#737=ORIENTED_EDGE('',*,*,#526,.F.);
#738=ORIENTED_EDGE('',*,*,#527,.T.);
#739=ORIENTED_EDGE('',*,*,#439,.T.);
#740=ORIENTED_EDGE('',*,*,#527,.F.);
#741=ORIENTED_EDGE('',*,*,#526,.T.);
#742=ORIENTED_EDGE('',*,*,#479,.F.);
#743=ORIENTED_EDGE('',*,*,#502,.T.);
#744=ORIENTED_EDGE('',*,*,#483,.F.);
#745=ORIENTED_EDGE('',*,*,#522,.F.);
#746=CYLINDRICAL_SURFACE('',#824,6.);
#747=CYLINDRICAL_SURFACE('',#828,6.);
#748=CYLINDRICAL_SURFACE('',#832,6.00000000000001);
#749=CYLINDRICAL_SURFACE('',#838,1.50000000000011);
#750=CYLINDRICAL_SURFACE('',#844,1.5);
#751=CYLINDRICAL_SURFACE('',#850,4.5);
#752=CYLINDRICAL_SURFACE('',#853,4.5);
#753=CYLINDRICAL_SURFACE('',#856,2.);
#754=CYLINDRICAL_SURFACE('',#863,2.);
#755=CYLINDRICAL_SURFACE('',#864,8.);
#756=CYLINDRICAL_SURFACE('',#866,8.);
#757=CYLINDRICAL_SURFACE('',#870,1.);
#758=CYLINDRICAL_SURFACE('',#876,1.);
#759=CYLINDRICAL_SURFACE('',#879,4.49999999999999);
#760=CYLINDRICAL_SURFACE('',#895,4.5);
#761=CYLINDRICAL_SURFACE('',#900,6.00000000000001);
#762=ADVANCED_FACE('',(#56),#746,.T.);
#763=ADVANCED_FACE('',(#57),#24,.T.);
#764=ADVANCED_FACE('',(#58),#747,.T.);
#765=ADVANCED_FACE('',(#59),#25,.T.);
#766=ADVANCED_FACE('',(#60),#748,.T.);
#767=ADVANCED_FACE('',(#61),#26,.T.);
#768=ADVANCED_FACE('',(#62,#15,#16,#17,#18,#19),#27,.T.);
#769=ADVANCED_FACE('',(#63),#749,.T.);
#770=ADVANCED_FACE('',(#64,#20,#21),#28,.T.);
#771=ADVANCED_FACE('',(#65),#29,.T.);
#772=ADVANCED_FACE('',(#66),#750,.T.);
#773=ADVANCED_FACE('',(#67),#30,.T.);
#774=ADVANCED_FACE('',(#68,#22,#23),#31,.T.);
#775=ADVANCED_FACE('',(#69),#751,.F.);
#776=ADVANCED_FACE('',(#70),#752,.F.);
#777=ADVANCED_FACE('',(#71),#753,.T.);
#778=ADVANCED_FACE('',(#72),#32,.T.);
#779=ADVANCED_FACE('',(#73),#33,.T.);
#780=ADVANCED_FACE('',(#74),#754,.T.);
#781=ADVANCED_FACE('',(#75),#755,.T.);
#782=ADVANCED_FACE('',(#76),#756,.T.);
#783=ADVANCED_FACE('',(#77),#34,.T.);
#784=ADVANCED_FACE('',(#78),#757,.T.);
#785=ADVANCED_FACE('',(#79),#35,.T.);
#786=ADVANCED_FACE('',(#80),#36,.T.);
#787=ADVANCED_FACE('',(#81),#37,.T.);
#788=ADVANCED_FACE('',(#82),#758,.T.);
#789=ADVANCED_FACE('',(#83),#38,.T.);
#790=ADVANCED_FACE('',(#84),#759,.T.);
#791=ADVANCED_FACE('',(#85),#39,.T.);
#792=ADVANCED_FACE('',(#86),#40,.T.);
#793=ADVANCED_FACE('',(#87),#41,.T.);
#794=ADVANCED_FACE('',(#88),#42,.T.);
#795=ADVANCED_FACE('',(#89),#43,.T.);
#796=ADVANCED_FACE('',(#90),#44,.T.);
#797=ADVANCED_FACE('',(#91),#45,.T.);
#798=ADVANCED_FACE('',(#92),#46,.T.);
#799=ADVANCED_FACE('',(#93),#47,.T.);
#800=ADVANCED_FACE('',(#94),#48,.T.);
#801=ADVANCED_FACE('',(#95),#49,.T.);
#802=ADVANCED_FACE('',(#96),#50,.T.);
#803=ADVANCED_FACE('',(#97),#51,.T.);
#804=ADVANCED_FACE('',(#98),#760,.T.);
#805=ADVANCED_FACE('',(#99),#52,.T.);
#806=ADVANCED_FACE('',(#100),#53,.T.);
#807=ADVANCED_FACE('',(#101),#761,.T.);
#808=ADVANCED_FACE('',(#102),#54,.T.);
#809=ADVANCED_FACE('',(#103),#55,.F.);
#810=CLOSED_SHELL('',(#762,#763,#764,#765,#766,#767,#768,#769,#770,#771,
#772,#773,#774,#775,#776,#777,#778,#779,#780,#781,#782,#783,#784,#785,#786,
#787,#788,#789,#790,#791,#792,#793,#794,#795,#796,#797,#798,#799,#800,#801,
#802,#803,#804,#805,#806,#807,#808,#809));
#811=DERIVED_UNIT_ELEMENT(#813,1.);
#812=DERIVED_UNIT_ELEMENT(#1378,-3.);
#813=(
MASS_UNIT()
NAMED_UNIT(*)
SI_UNIT(.KILO.,.GRAM.)
);
#814=DERIVED_UNIT((#811,#812));
#815=MEASURE_REPRESENTATION_ITEM('density measure',
POSITIVE_RATIO_MEASURE(7850.),#814);
#816=PROPERTY_DEFINITION_REPRESENTATION(#821,#818);
#817=PROPERTY_DEFINITION_REPRESENTATION(#822,#819);
#818=REPRESENTATION('material name',(#820),#1375);
#819=REPRESENTATION('density',(#815),#1375);
#820=DESCRIPTIVE_REPRESENTATION_ITEM('Steel','Steel');
#821=PROPERTY_DEFINITION('material property','material name',#1385);
#822=PROPERTY_DEFINITION('material property','density of part',#1385);
#823=AXIS2_PLACEMENT_3D('',#1143,#904,#905);
#824=AXIS2_PLACEMENT_3D('',#1144,#906,#907);
#825=AXIS2_PLACEMENT_3D('',#1146,#908,#909);
#826=AXIS2_PLACEMENT_3D('',#1149,#911,#912);
#827=AXIS2_PLACEMENT_3D('',#1150,#913,#914);
#828=AXIS2_PLACEMENT_3D('',#1151,#915,#916);
#829=AXIS2_PLACEMENT_3D('',#1153,#917,#918);
#830=AXIS2_PLACEMENT_3D('',#1156,#920,#921);
#831=AXIS2_PLACEMENT_3D('',#1157,#922,#923);
#832=AXIS2_PLACEMENT_3D('',#1158,#924,#925);
#833=AXIS2_PLACEMENT_3D('',#1160,#926,#927);
#834=AXIS2_PLACEMENT_3D('',#1163,#929,#930);
#835=AXIS2_PLACEMENT_3D('',#1164,#931,#932);
#836=AXIS2_PLACEMENT_3D('',#1165,#933,#934);
#837=AXIS2_PLACEMENT_3D('',#1189,#946,#947);
#838=AXIS2_PLACEMENT_3D('',#1190,#948,#949);
#839=AXIS2_PLACEMENT_3D('',#1193,#950,#951);
#840=AXIS2_PLACEMENT_3D('',#1197,#953,#954);
#841=AXIS2_PLACEMENT_3D('',#1199,#956,#957);
#842=AXIS2_PLACEMENT_3D('',#1223,#970,#971);
#843=AXIS2_PLACEMENT_3D('',#1227,#973,#974);
#844=AXIS2_PLACEMENT_3D('',#1229,#976,#977);
#845=AXIS2_PLACEMENT_3D('',#1232,#978,#979);
#846=AXIS2_PLACEMENT_3D('',#1236,#981,#982);
#847=AXIS2_PLACEMENT_3D('',#1238,#984,#985);
#848=AXIS2_PLACEMENT_3D('',#1244,#988,#989);
#849=AXIS2_PLACEMENT_3D('',#1246,#991,#992);
#850=AXIS2_PLACEMENT_3D('',#1268,#1004,#1005);
#851=AXIS2_PLACEMENT_3D('',#1270,#1006,#1007);
#852=AXIS2_PLACEMENT_3D('',#1273,#1009,#1010);
#853=AXIS2_PLACEMENT_3D('',#1274,#1011,#1012);
#854=AXIS2_PLACEMENT_3D('',#1276,#1013,#1014);
#855=AXIS2_PLACEMENT_3D('',#1278,#1015,#1016);
#856=AXIS2_PLACEMENT_3D('',#1280,#1018,#1019);
#857=AXIS2_PLACEMENT_3D('',#1283,#1020,#1021);
#858=AXIS2_PLACEMENT_3D('',#1286,#1024,#1025);
#859=AXIS2_PLACEMENT_3D('',#1290,#1027,#1028);
#860=AXIS2_PLACEMENT_3D('',#1293,#1030,#1031);
#861=AXIS2_PLACEMENT_3D('',#1295,#1032,#1033);
#862=AXIS2_PLACEMENT_3D('',#1297,#1035,#1036);
#863=AXIS2_PLACEMENT_3D('',#1300,#1039,#1040);
#864=AXIS2_PLACEMENT_3D('',#1302,#1042,#1043);
#865=AXIS2_PLACEMENT_3D('',#1304,#1044,#1045);
#866=AXIS2_PLACEMENT_3D('',#1306,#1047,#1048);
#867=AXIS2_PLACEMENT_3D('',#1308,#1049,#1050);
#868=AXIS2_PLACEMENT_3D('',#1310,#1052,#1053);
#869=AXIS2_PLACEMENT_3D('',#1311,#1054,#1055);
#870=AXIS2_PLACEMENT_3D('',#1312,#1056,#1057);
#871=AXIS2_PLACEMENT_3D('',#1313,#1058,#1059);
#872=AXIS2_PLACEMENT_3D('',#1314,#1060,#1061);
#873=AXIS2_PLACEMENT_3D('',#1315,#1062,#1063);
#874=AXIS2_PLACEMENT_3D('',#1317,#1065,#1066);
#875=AXIS2_PLACEMENT_3D('',#1318,#1067,#1068);
#876=AXIS2_PLACEMENT_3D('',#1319,#1069,#1070);
#877=AXIS2_PLACEMENT_3D('',#1320,#1071,#1072);
#878=AXIS2_PLACEMENT_3D('',#1321,#1073,#1074);
#879=AXIS2_PLACEMENT_3D('',#1322,#1075,#1076);
#880=AXIS2_PLACEMENT_3D('',#1323,#1077,#1078);
#881=AXIS2_PLACEMENT_3D('',#1324,#1079,#1080);
#882=AXIS2_PLACEMENT_3D('',#1325,#1081,#1082);
#883=AXIS2_PLACEMENT_3D('',#1326,#1083,#1084);
#884=AXIS2_PLACEMENT_3D('',#1327,#1085,#1086);
#885=AXIS2_PLACEMENT_3D('',#1333,#1090,#1091);
#886=AXIS2_PLACEMENT_3D('',#1337,#1094,#1095);
#887=AXIS2_PLACEMENT_3D('',#1341,#1098,#1099);
#888=AXIS2_PLACEMENT_3D('',#1345,#1102,#1103);
#889=AXIS2_PLACEMENT_3D('',#1349,#1106,#1107);
#890=AXIS2_PLACEMENT_3D('',#1353,#1110,#1111);
#891=AXIS2_PLACEMENT_3D('',#1355,#1113,#1114);
#892=AXIS2_PLACEMENT_3D('',#1357,#1116,#1117);
#893=AXIS2_PLACEMENT_3D('',#1360,#1120,#1121);
#894=AXIS2_PLACEMENT_3D('',#1361,#1122,#1123);
#895=AXIS2_PLACEMENT_3D('',#1362,#1124,#1125);
#896=AXIS2_PLACEMENT_3D('',#1363,#1126,#1127);
#897=AXIS2_PLACEMENT_3D('',#1364,#1128,#1129);
#898=AXIS2_PLACEMENT_3D('',#1365,#1130,#1131);
#899=AXIS2_PLACEMENT_3D('',#1366,#1132,#1133);
#900=AXIS2_PLACEMENT_3D('',#1367,#1134,#1135);
#901=AXIS2_PLACEMENT_3D('',#1369,#1136,#1137);
#902=AXIS2_PLACEMENT_3D('',#1371,#1139,#1140);
#903=AXIS2_PLACEMENT_3D('',#1372,#1141,#1142);
#904=DIRECTION('axis',(0.,0.,1.));
#905=DIRECTION('refdir',(1.,0.,0.));
#906=DIRECTION('center_axis',(0.,0.,1.));
#907=DIRECTION('ref_axis',(1.,0.,0.));
#908=DIRECTION('center_axis',(0.,0.,1.));
#909=DIRECTION('ref_axis',(1.,0.,0.));
#910=DIRECTION('',(0.,0.,-1.));
#911=DIRECTION('center_axis',(0.,0.,-1.));
#912=DIRECTION('ref_axis',(1.,0.,0.));
#913=DIRECTION('center_axis',(0.,0.,1.));
#914=DIRECTION('ref_axis',(1.,0.,0.));
#915=DIRECTION('center_axis',(0.,0.,1.));
#916=DIRECTION('ref_axis',(1.,0.,0.));
#917=DIRECTION('center_axis',(0.,0.,1.));
#918=DIRECTION('ref_axis',(1.,0.,0.));
#919=DIRECTION('',(0.,0.,-1.));
#920=DIRECTION('center_axis',(0.,0.,-1.));
#921=DIRECTION('ref_axis',(1.,0.,0.));
#922=DIRECTION('center_axis',(0.,0.,1.));
#923=DIRECTION('ref_axis',(1.,0.,0.));
#924=DIRECTION('center_axis',(0.,0.,1.));
#925=DIRECTION('ref_axis',(1.,0.,0.));
#926=DIRECTION('center_axis',(0.,0.,1.));
#927=DIRECTION('ref_axis',(1.,0.,0.));
#928=DIRECTION('',(0.,0.,-1.));
#929=DIRECTION('center_axis',(0.,0.,-1.));
#930=DIRECTION('ref_axis',(1.,0.,0.));
#931=DIRECTION('center_axis',(0.,0.,1.));
#932=DIRECTION('ref_axis',(1.,0.,0.));
#933=DIRECTION('center_axis',(0.,0.,1.));
#934=DIRECTION('ref_axis',(1.,0.,0.));
#935=DIRECTION('',(-5.9211894646675E-15,-1.,0.));
#936=DIRECTION('',(-1.,0.,0.));
#937=DIRECTION('',(0.,1.,0.));
#938=DIRECTION('',(1.,0.,0.));
#939=DIRECTION('',(0.,-1.,0.));
#940=DIRECTION('',(-1.,0.,0.));
#941=DIRECTION('',(0.,1.,0.));
#942=DIRECTION('',(-1.,0.,0.));
#943=DIRECTION('',(0.624695047554424,0.78086880944303,0.));
#944=DIRECTION('',(0.624695047554424,-0.78086880944303,0.));
#945=DIRECTION('',(-1.,0.,0.));
#946=DIRECTION('center_axis',(0.,0.,1.));
#947=DIRECTION('ref_axis',(1.,0.,0.));
#948=DIRECTION('center_axis',(2.806575353195E-15,1.,3.1146141114725E-15));
#949=DIRECTION('ref_axis',(1.,-5.92118946466707E-15,0.));
#950=DIRECTION('center_axis',(0.,1.,0.));
#951=DIRECTION('ref_axis',(1.,-5.92118946466707E-15,0.));
#952=DIRECTION('',(-3.080387582775E-16,1.,3.1146141114725E-15));
#953=DIRECTION('center_axis',(0.,-1.,0.));
#954=DIRECTION('ref_axis',(1.,-5.92118946466707E-15,0.));
#955=DIRECTION('',(-5.9211894646675E-15,-1.,-3.1146141114725E-15));
#956=DIRECTION('center_axis',(-1.,-3.080387582775E-16,0.));
#957=DIRECTION('ref_axis',(-3.080387582775E-16,1.,0.));
#958=DIRECTION('',(0.,0.,-1.));
#959=DIRECTION('',(0.,0.,-1.));
#960=DIRECTION('',(3.080387582775E-16,-1.,0.));
#961=DIRECTION('',(0.,0.,-1.));
#962=DIRECTION('',(0.,0.,-1.));
#963=DIRECTION('',(0.,1.,-6.81994143696906E-15));
#964=DIRECTION('',(-2.22044604925023E-13,-7.06990022081274E-12,1.));
#965=DIRECTION('',(6.34413156928636E-14,-1.,-3.17206578464318E-15));
#966=DIRECTION('',(3.080387582775E-16,-1.,-7.06990022081275E-12));
#967=DIRECTION('',(0.,3.01346249541114E-15,-1.));
#968=DIRECTION('',(-3.080387582775E-16,1.,0.));
#969=DIRECTION('',(0.,-3.01346249541114E-15,1.));
#970=DIRECTION('center_axis',(0.,-1.,0.));
#971=DIRECTION('ref_axis',(-1.,0.,0.));
#972=DIRECTION('',(0.,0.,-1.));
#973=DIRECTION('center_axis',(0.,1.,0.));
#974=DIRECTION('ref_axis',(0.707106781186546,-4.12149270404492E-15,-0.707106781186549));
#975=DIRECTION('',(-1.,0.,0.));
#976=DIRECTION('center_axis',(0.,-1.,0.));
#977=DIRECTION('ref_axis',(-1.,0.,0.));
#978=DIRECTION('center_axis',(0.,-1.,0.));
#979=DIRECTION('ref_axis',(-1.,0.,0.));
#980=DIRECTION('',(0.,-1.,0.));
#981=DIRECTION('center_axis',(0.,1.,0.));
#982=DIRECTION('ref_axis',(-1.,0.,0.));
#983=DIRECTION('',(0.,1.,0.));
#984=DIRECTION('center_axis',(0.,-1.,0.));
#985=DIRECTION('ref_axis',(-1.,0.,0.));
#986=DIRECTION('',(0.,0.,-1.));
#987=DIRECTION('',(-1.,0.,0.));
#988=DIRECTION('center_axis',(0.,1.,0.));
#989=DIRECTION('ref_axis',(-0.707106781186548,0.,-0.707106781186547));
#990=DIRECTION('',(0.,0.,-1.));
#991=DIRECTION('center_axis',(1.,0.,0.));
#992=DIRECTION('ref_axis',(0.,-1.,0.));
#993=DIRECTION('',(0.,0.,-1.));
#994=DIRECTION('',(0.,1.,0.));
#995=DIRECTION('',(0.,0.,-1.));
#996=DIRECTION('',(0.,-3.1720657846431E-15,1.));
#997=DIRECTION('',(0.,1.,6.98108237884274E-12));
#998=DIRECTION('',(0.,-6.50273485850538E-15,-1.));
#999=DIRECTION('',(0.,-1.,0.));
#1000=DIRECTION('',(0.,0.,-1.));
#1001=DIRECTION('',(0.,-1.,-3.17206578465727E-15));
#1002=DIRECTION('',(0.,-7.06990022081273E-12,1.));
#1003=DIRECTION('',(0.,1.,-6.66133814773722E-15));
#1004=DIRECTION('center_axis',(3.080387582775E-16,-1.,0.));
#1005=DIRECTION('ref_axis',(0.707106781186547,0.,0.707106781186548));
#1006=DIRECTION('center_axis',(0.,1.,0.));
#1007=DIRECTION('ref_axis',(0.707106781186547,0.,0.707106781186548));
#1008=DIRECTION('',(-3.080387582775E-16,1.,0.));
#1009=DIRECTION('center_axis',(0.,1.,0.));
#1010=DIRECTION('ref_axis',(0.707106781186547,0.,0.707106781186548));
#1011=DIRECTION('center_axis',(0.,1.,0.));
#1012=DIRECTION('ref_axis',(-0.707106781186547,0.,0.707106781186548));
#1013=DIRECTION('center_axis',(0.,1.,0.));
#1014=DIRECTION('ref_axis',(-0.707106781186547,0.,0.707106781186548));
#1015=DIRECTION('center_axis',(0.,1.,0.));
#1016=DIRECTION('ref_axis',(-0.707106781186547,0.,0.707106781186548));
#1017=DIRECTION('',(0.,-1.,0.));
#1018=DIRECTION('center_axis',(0.,1.,0.));
#1019=DIRECTION('ref_axis',(-0.707106781186548,0.,-0.707106781186547));
#1020=DIRECTION('center_axis',(0.,1.,0.));
#1021=DIRECTION('ref_axis',(-0.707106781186548,0.,-0.707106781186547));
#1022=DIRECTION('',(0.,1.,0.));
#1023=DIRECTION('',(0.,-1.,0.));
#1024=DIRECTION('center_axis',(0.,-1.,0.));
#1025=DIRECTION('ref_axis',(1.,0.,0.));
#1026=DIRECTION('',(-1.,0.,0.));
#1027=DIRECTION('center_axis',(0.,1.,0.));
#1028=DIRECTION('ref_axis',(0.707106781186546,-4.12149270404492E-15,-0.707106781186549));
#1029=DIRECTION('',(0.,0.,-1.));
#1030=DIRECTION('center_axis',(0.,1.,0.));
#1031=DIRECTION('ref_axis',(0.707106781186548,-3.14018491736755E-15,0.707106781186547));
#1032=DIRECTION('center_axis',(0.,1.,0.));
#1033=DIRECTION('ref_axis',(-0.707106781186548,0.,0.707106781186548));
#1034=DIRECTION('',(0.,0.,1.));
#1035=DIRECTION('center_axis',(0.,0.,-1.));
#1036=DIRECTION('ref_axis',(-1.,0.,0.));
#1037=DIRECTION('',(1.,0.,0.));
#1038=DIRECTION('',(5.9211894646675E-15,1.,0.));
#1039=DIRECTION('center_axis',(-5.9211894646675E-15,-1.,0.));
#1040=DIRECTION('ref_axis',(0.707106781186546,-4.12149270404492E-15,-0.707106781186549));
#1041=DIRECTION('',(-5.9211894646675E-15,-1.,0.));
#1042=DIRECTION('center_axis',(5.9211894646675E-15,1.,0.));
#1043=DIRECTION('ref_axis',(0.707106781186548,-3.14018491736755E-15,0.707106781186547));
#1044=DIRECTION('center_axis',(0.,-1.,0.));
#1045=DIRECTION('ref_axis',(0.707106781186548,-3.14018491736755E-15,0.707106781186547));
#1046=DIRECTION('',(5.9211894646675E-15,1.,0.));
#1047=DIRECTION('center_axis',(0.,-1.,0.));
#1048=DIRECTION('ref_axis',(-0.707106781186548,0.,0.707106781186548));
#1049=DIRECTION('center_axis',(0.,-1.,0.));
#1050=DIRECTION('ref_axis',(-0.707106781186548,0.,0.707106781186548));
#1051=DIRECTION('',(0.,-1.,0.));
#1052=DIRECTION('center_axis',(0.,-7.06990022081275E-12,1.));
#1053=DIRECTION('ref_axis',(-2.22044604925024E-13,1.,7.06990022081275E-12));
#1054=DIRECTION('center_axis',(0.,7.06990022081275E-12,-1.));
#1055=DIRECTION('ref_axis',(-0.70710678118654,0.707106781186555,-4.71027737605138E-15));
#1056=DIRECTION('center_axis',(0.,-3.01346249541114E-15,1.));
#1057=DIRECTION('ref_axis',(-0.70710678118654,-0.707106781186555,0.));
#1058=DIRECTION('center_axis',(0.,0.,1.));
#1059=DIRECTION('ref_axis',(-0.70710678118654,-0.707106781186555,0.));
#1060=DIRECTION('center_axis',(0.,0.,-1.));
#1061=DIRECTION('ref_axis',(0.,-1.,0.));
#1062=DIRECTION('center_axis',(0.,1.,0.));
#1063=DIRECTION('ref_axis',(1.,0.,0.));
#1064=DIRECTION('',(-1.,0.,0.));
#1065=DIRECTION('center_axis',(0.,-6.98108237884274E-12,1.));
#1066=DIRECTION('ref_axis',(5.32324184732128E-12,-1.,-6.98108237884274E-12));
#1067=DIRECTION('center_axis',(0.,6.98108237884274E-12,-1.));
#1068=DIRECTION('ref_axis',(0.707106781186547,-0.707106781186548,-3.14018491736755E-15));
#1069=DIRECTION('center_axis',(0.,6.50273485850538E-15,1.));
#1070=DIRECTION('ref_axis',(0.707106781186547,0.707106781186548,-6.2803698347351E-15));
#1071=DIRECTION('center_axis',(0.,0.,1.));
#1072=DIRECTION('ref_axis',(0.707106781186547,0.707106781186548,-6.2803698347351E-15));
#1073=DIRECTION('center_axis',(0.,0.,-1.));
#1074=DIRECTION('ref_axis',(0.,1.,0.));
#1075=DIRECTION('center_axis',(0.,0.,-1.));
#1076=DIRECTION('ref_axis',(0.628539361048596,0.777777777782718,0.));
#1077=DIRECTION('center_axis',(2.22044604925032E-13,-6.66133814773722E-15,
-1.));
#1078=DIRECTION('ref_axis',(0.628539361048596,0.777777777782718,0.));
#1079=DIRECTION('center_axis',(-2.22044604925031E-13,-3.17206578465727E-15,
1.));
#1080=DIRECTION('ref_axis',(0.628539361048596,0.777777777782718,0.));
#1081=DIRECTION('center_axis',(-2.22044604925032E-13,6.66133814773722E-15,
1.));
#1082=DIRECTION('ref_axis',(0.,-1.,6.66133814773722E-15));
#1083=DIRECTION('center_axis',(2.22044604925031E-13,3.17206578465727E-15,
-1.));
#1084=DIRECTION('ref_axis',(-6.34413156928636E-14,1.,3.17206578464318E-15));
#1085=DIRECTION('center_axis',(-0.78086880944303,-0.624695047554424,0.));
#1086=DIRECTION('ref_axis',(0.624695047554424,-0.78086880944303,0.));
#1087=DIRECTION('',(-0.624695047554424,0.78086880944303,0.));
#1088=DIRECTION('',(0.,0.,1.));
#1089=DIRECTION('',(0.,0.,1.));
#1090=DIRECTION('center_axis',(0.,1.,0.));
#1091=DIRECTION('ref_axis',(-1.,0.,0.));
#1092=DIRECTION('',(1.,0.,0.));
#1093=DIRECTION('',(0.,0.,1.));
#1094=DIRECTION('center_axis',(-1.,0.,0.));
#1095=DIRECTION('ref_axis',(0.,-1.,0.));
#1096=DIRECTION('',(0.,1.,0.));
#1097=DIRECTION('',(0.,0.,1.));
#1098=DIRECTION('center_axis',(0.78086880944303,-0.624695047554424,0.));
#1099=DIRECTION('ref_axis',(0.624695047554424,0.78086880944303,0.));
#1100=DIRECTION('',(-0.624695047554424,-0.78086880944303,0.));
#1101=DIRECTION('',(0.,0.,1.));
#1102=DIRECTION('center_axis',(0.,1.,0.));
#1103=DIRECTION('ref_axis',(-1.,0.,0.));
#1104=DIRECTION('',(1.,0.,0.));
#1105=DIRECTION('',(0.,0.,1.));
#1106=DIRECTION('center_axis',(1.,0.,0.));
#1107=DIRECTION('ref_axis',(0.,1.,0.));
#1108=DIRECTION('',(0.,-1.,0.));
#1109=DIRECTION('',(0.,0.,1.));
#1110=DIRECTION('center_axis',(0.,1.,0.));
#1111=DIRECTION('ref_axis',(-1.,0.,0.));
#1112=DIRECTION('',(1.,0.,0.));
#1113=DIRECTION('center_axis',(-1.,0.,0.));
#1114=DIRECTION('ref_axis',(0.,-1.,0.));
#1115=DIRECTION('',(0.,0.,1.));
#1116=DIRECTION('center_axis',(0.,1.,0.));
#1117=DIRECTION('ref_axis',(-1.,0.,0.));
#1118=DIRECTION('',(-1.,0.,0.));
#1119=DIRECTION('',(0.,0.,1.));
#1120=DIRECTION('center_axis',(1.,-5.9211894646675E-15,0.));
#1121=DIRECTION('ref_axis',(5.9211894646675E-15,1.,0.));
#1122=DIRECTION('center_axis',(0.,0.,1.));
#1123=DIRECTION('ref_axis',(1.,0.,0.));
#1124=DIRECTION('center_axis',(0.,0.,1.));
#1125=DIRECTION('ref_axis',(-0.628539361054724,0.777777777777766,0.));
#1126=DIRECTION('center_axis',(-2.22044604925031E-13,-3.17206578465727E-15,
1.));
#1127=DIRECTION('ref_axis',(-0.628539361054724,0.777777777777766,0.));
#1128=DIRECTION('center_axis',(2.22044604925031E-13,-6.81994143696906E-15,
-1.));
#1129=DIRECTION('ref_axis',(-0.628539361054724,0.777777777777766,0.));
#1130=DIRECTION('center_axis',(2.22044604925031E-13,3.17206578465727E-15,
-1.));
#1131=DIRECTION('ref_axis',(6.34413156928636E-14,-1.,-3.17206578464318E-15));
#1132=DIRECTION('center_axis',(-2.22044604925031E-13,6.81994143696906E-15,
1.));
#1133=DIRECTION('ref_axis',(0.,1.,-6.81994143696906E-15));
#1134=DIRECTION('center_axis',(0.,0.,1.));
#1135=DIRECTION('ref_axis',(1.,0.,0.));
#1136=DIRECTION('center_axis',(0.,0.,1.));
#1137=DIRECTION('ref_axis',(1.,0.,0.));
#1138=DIRECTION('',(0.,0.,-1.));
#1139=DIRECTION('center_axis',(0.,0.,1.));
#1140=DIRECTION('ref_axis',(1.,0.,0.));
#1141=DIRECTION('center_axis',(0.,0.,1.));
#1142=DIRECTION('ref_axis',(1.,0.,0.));
#1143=CARTESIAN_POINT('',(0.,0.,0.));
#1144=CARTESIAN_POINT('Origin',(15.,160.,0.));
#1145=CARTESIAN_POINT('',(9.,160.,4.));
#1146=CARTESIAN_POINT('Origin',(15.,160.,4.));
#1147=CARTESIAN_POINT('',(9.,160.,3.));
#1148=CARTESIAN_POINT('',(9.,160.,0.));
#1149=CARTESIAN_POINT('Origin',(15.,160.,3.));
#1150=CARTESIAN_POINT('Origin',(15.,160.,4.));
#1151=CARTESIAN_POINT('Origin',(15.,10.,0.));
#1152=CARTESIAN_POINT('',(9.,10.,4.));
#1153=CARTESIAN_POINT('Origin',(15.,10.,4.));
#1154=CARTESIAN_POINT('',(9.,10.,3.));
#1155=CARTESIAN_POINT('',(9.,10.,0.));
#1156=CARTESIAN_POINT('Origin',(15.,10.,3.));
#1157=CARTESIAN_POINT('Origin',(15.,10.,4.));
#1158=CARTESIAN_POINT('Origin',(77.3,160.,0.));
#1159=CARTESIAN_POINT('',(71.3,160.,4.));
#1160=CARTESIAN_POINT('Origin',(77.3,160.,4.));
#1161=CARTESIAN_POINT('',(71.3,160.,3.));
#1162=CARTESIAN_POINT('',(71.3,160.,0.));
#1163=CARTESIAN_POINT('Origin',(77.3,160.,3.));
#1164=CARTESIAN_POINT('Origin',(77.3,160.,4.));
#1165=CARTESIAN_POINT('Origin',(46.05,85.,3.));
#1166=CARTESIAN_POINT('',(84.100000000001,173.,3.));
#1167=CARTESIAN_POINT('',(84.1,-3.,3.));
#1168=CARTESIAN_POINT('',(84.1000000000002,40.9999999999999,3.));
#1169=CARTESIAN_POINT('',(8.00000000000001,173.,3.));
#1170=CARTESIAN_POINT('',(92.1,173.,3.));
#1171=CARTESIAN_POINT('',(8.,-3.,3.));
#1172=CARTESIAN_POINT('',(8.,129.,3.));
#1173=CARTESIAN_POINT('',(0.,-3.,3.));
#1174=CARTESIAN_POINT('',(48.1500006556511,165.000002458692,3.));
#1175=CARTESIAN_POINT('',(48.1500006556511,159.000002369285,3.));
#1176=CARTESIAN_POINT('',(48.1500006556511,165.000002458692,3.));
#1177=CARTESIAN_POINT('',(44.1500005960464,159.000002369285,3.));
#1178=CARTESIAN_POINT('',(48.1500006556511,159.000002369285,3.));
#1179=CARTESIAN_POINT('',(44.1500005960464,165.000002458692,3.));
#1180=CARTESIAN_POINT('',(44.1500005960464,159.000002369285,3.));
#1181=CARTESIAN_POINT('',(42.1500005662441,165.000002458692,3.));
#1182=CARTESIAN_POINT('',(44.1500005960464,165.000002458692,3.));
#1183=CARTESIAN_POINT('',(46.1500006258488,170.000002533197,3.));
#1184=CARTESIAN_POINT('',(42.1500005662441,165.000002458692,3.));
#1185=CARTESIAN_POINT('',(50.1500006854534,165.000002458692,3.));
#1186=CARTESIAN_POINT('',(46.1500006258488,170.000002533197,3.));
#1187=CARTESIAN_POINT('',(50.1500006854534,165.000002458692,3.));
#1188=CARTESIAN_POINT('',(71.1,10.,3.));
#1189=CARTESIAN_POINT('Origin',(77.1,10.,3.));
#1190=CARTESIAN_POINT('Origin',(90.6000000000001,42.5,-13.4999999999999));
#1191=CARTESIAN_POINT('',(92.1,0.,-13.5));
#1192=CARTESIAN_POINT('',(89.1,0.,-13.5));
#1193=CARTESIAN_POINT('Origin',(90.6,4.44089209850063E-14,-13.5));
#1194=CARTESIAN_POINT('',(89.1,173.,-13.4999999999995));
#1195=CARTESIAN_POINT('',(89.1,42.5,-13.4999999999999));
#1196=CARTESIAN_POINT('',(92.1,173.,-13.4999999999995));
#1197=CARTESIAN_POINT('Origin',(90.6000000000005,173.,-13.4999999999995));
#1198=CARTESIAN_POINT('',(92.1000000000002,42.5,-13.4999999999999));
#1199=CARTESIAN_POINT('Origin',(89.1,0.,0.));
#1200=CARTESIAN_POINT('',(89.1,0.,-10.));
#1201=CARTESIAN_POINT('',(89.1,0.,0.));
#1202=CARTESIAN_POINT('',(89.1,0.,-4.5));
#1203=CARTESIAN_POINT('',(89.1,0.,0.));
#1204=CARTESIAN_POINT('',(89.1,173.,-4.5));
#1205=CARTESIAN_POINT('',(89.1,82.2500012256205,-4.5));
#1206=CARTESIAN_POINT('',(89.1,173.,0.));
#1207=CARTESIAN_POINT('',(89.1000027412734,167.500012754797,-8.49994333526858));
#1208=CARTESIAN_POINT('',(89.1000027412734,167.500012754797,-10.4999433352686));
#1209=CARTESIAN_POINT('',(89.1000027412734,167.500012754797,-8.49994333526858));
#1210=CARTESIAN_POINT('',(89.1000027412734,160.500012754783,-8.49994333526853));
#1211=CARTESIAN_POINT('',(89.1000027412734,160.500012754783,-8.49994333526853));
#1212=CARTESIAN_POINT('',(89.1000027412739,160.500012754797,-10.4999433352686));
#1213=CARTESIAN_POINT('',(89.1000027412739,160.500012754797,-10.4999433352686));
#1214=CARTESIAN_POINT('',(89.1000027412734,167.500012754797,-10.4999433352686));
#1215=CARTESIAN_POINT('',(89.1000027412734,7.50001275479701,-4.83744333525445));
#1216=CARTESIAN_POINT('',(89.1000027412739,5.50001275479694,-4.83744333526858));
#1217=CARTESIAN_POINT('',(89.1,2.75000637741557,-4.83744333528803));
#1218=CARTESIAN_POINT('',(89.1000027412734,5.50001275479696,-11.8374433352686));
#1219=CARTESIAN_POINT('',(89.1,5.50001275480071,-10.0874433352651));
#1220=CARTESIAN_POINT('',(89.1000027412734,7.50001275479696,-11.8374433352686));
#1221=CARTESIAN_POINT('',(89.1,3.75000637739848,-11.8374433352686));
#1222=CARTESIAN_POINT('',(89.1,7.5000127547932,-10.087443335265));
#1223=CARTESIAN_POINT('Origin',(92.1,0.,0.));
#1224=CARTESIAN_POINT('',(92.1,0.,-8.));
#1225=CARTESIAN_POINT('',(92.1,0.,0.));
#1226=CARTESIAN_POINT('',(90.1,0.,-10.));
#1227=CARTESIAN_POINT('Origin',(90.1,1.19348975147204E-14,-8.));
#1228=CARTESIAN_POINT('',(69.075,0.,-10.));
#1229=CARTESIAN_POINT('Origin',(1.5,129.75,-13.5));
#1230=CARTESIAN_POINT('',(0.,173.,-13.5));
#1231=CARTESIAN_POINT('',(3.,173.,-13.5));
#1232=CARTESIAN_POINT('Origin',(1.5,173.,-13.5));
#1233=CARTESIAN_POINT('',(3.,0.,-13.5));
#1234=CARTESIAN_POINT('',(3.,129.75,-13.5));
#1235=CARTESIAN_POINT('',(0.,0.,-13.5));
#1236=CARTESIAN_POINT('Origin',(1.5,0.,-13.5));
#1237=CARTESIAN_POINT('',(0.,129.75,-13.5));
#1238=CARTESIAN_POINT('Origin',(3.,0.,0.));
#1239=CARTESIAN_POINT('',(3.,0.,-10.));
#1240=CARTESIAN_POINT('',(3.,0.,0.));
#1241=CARTESIAN_POINT('',(2.,0.,-10.));
#1242=CARTESIAN_POINT('',(24.525,0.,-10.));
#1243=CARTESIAN_POINT('',(0.,0.,-8.));
#1244=CARTESIAN_POINT('Origin',(2.,0.,-8.));
#1245=CARTESIAN_POINT('',(0.,0.,0.));
#1246=CARTESIAN_POINT('Origin',(3.,173.,0.));
#1247=CARTESIAN_POINT('',(3.,173.,-4.5));
#1248=CARTESIAN_POINT('',(3.,173.,0.));
#1249=CARTESIAN_POINT('',(3.,0.,-4.5));
#1250=CARTESIAN_POINT('',(3.,168.750001225621,-4.5));
#1251=CARTESIAN_POINT('',(3.,0.,0.));
#1252=CARTESIAN_POINT('',(3.00000274127344,5.00001275479696,-12.4999433352689));
#1253=CARTESIAN_POINT('',(3.00000274128409,5.00001275479694,-5.49994333526841));
#1254=CARTESIAN_POINT('',(3.,5.00001275479693,-2.74997166763447));
#1255=CARTESIAN_POINT('',(3.00000274127344,7.00001275479701,-5.49994333525444));
#1256=CARTESIAN_POINT('',(3.,90.0000063774177,-5.49994333467501));
#1257=CARTESIAN_POINT('',(3.00000274127344,7.00001275479697,-12.4999433352689));
#1258=CARTESIAN_POINT('',(3.,7.000012754797,-6.24997166763389));
#1259=CARTESIAN_POINT('',(3.,89.0000063773985,-12.4999433352689));
#1260=CARTESIAN_POINT('',(3.00000274127344,167.500012754797,-8.49994333526856));
#1261=CARTESIAN_POINT('',(3.00000274127344,167.500012754797,-10.4999433352686));
#1262=CARTESIAN_POINT('',(3.,167.500012754797,-5.24997166763428));
#1263=CARTESIAN_POINT('',(3.00000274127388,160.500012754797,-10.4999433352686));
#1264=CARTESIAN_POINT('',(3.,166.750006377399,-10.4999433352686));
#1265=CARTESIAN_POINT('',(3.00000274127344,160.500012754783,-8.49994333526851));
#1266=CARTESIAN_POINT('',(3.,160.500012754753,-4.24997166767844));
#1267=CARTESIAN_POINT('',(3.,170.250006377399,-8.49994333526858));
#1268=CARTESIAN_POINT('Origin',(84.6,82.2500012256205,-4.5));
#1269=CARTESIAN_POINT('',(84.6000000000001,0.,0.));
#1270=CARTESIAN_POINT('Origin',(84.6,1.77635683940025E-14,-4.5));
#1271=CARTESIAN_POINT('',(84.6,173.,0.));
#1272=CARTESIAN_POINT('',(84.6,82.2500012256205,0.));
#1273=CARTESIAN_POINT('Origin',(84.6,173.,-4.5));
#1274=CARTESIAN_POINT('Origin',(7.5,168.750001225621,-4.5));
#1275=CARTESIAN_POINT('',(7.5,0.,0.));
#1276=CARTESIAN_POINT('Origin',(7.5,0.,-4.5));
#1277=CARTESIAN_POINT('',(7.5,173.,0.));
#1278=CARTESIAN_POINT('Origin',(7.5,173.,-4.5));
#1279=CARTESIAN_POINT('',(7.5,168.750001225621,0.));
#1280=CARTESIAN_POINT('Origin',(2.,85.75,-8.));
#1281=CARTESIAN_POINT('',(2.,-3.,-10.));
#1282=CARTESIAN_POINT('',(0.,-3.,-8.));
#1283=CARTESIAN_POINT('Origin',(2.,-3.00000000000001,-8.));
#1284=CARTESIAN_POINT('',(0.,85.75,-8.));
#1285=CARTESIAN_POINT('',(2.,85.75,-10.));
#1286=CARTESIAN_POINT('Origin',(0.,-3.,0.));
#1287=CARTESIAN_POINT('',(90.1,-3.,-10.));
#1288=CARTESIAN_POINT('',(0.,-3.,-10.));
#1289=CARTESIAN_POINT('',(92.1,-3.,-8.));
#1290=CARTESIAN_POINT('Origin',(90.1,-3.00000000000053,-8.));
#1291=CARTESIAN_POINT('',(92.1,-3.,-5.));
#1292=CARTESIAN_POINT('',(92.1,-3.,0.));
#1293=CARTESIAN_POINT('Origin',(84.1,-3.0000000000005,-5.));
#1294=CARTESIAN_POINT('',(0.,-3.,-5.));
#1295=CARTESIAN_POINT('Origin',(8.,-3.00000000000001,-5.));
#1296=CARTESIAN_POINT('',(0.,-3.,0.));
#1297=CARTESIAN_POINT('Origin',(46.05,-1.5,-10.));
#1298=CARTESIAN_POINT('',(0.,0.,-10.));
#1299=CARTESIAN_POINT('',(90.1,-2.25000000000012,-10.));
#1300=CARTESIAN_POINT('Origin',(90.1,-2.25000000000012,-8.));
#1301=CARTESIAN_POINT('',(92.1,-2.25000000000014,-8.));
#1302=CARTESIAN_POINT('Origin',(84.1000000000002,40.9999999999999,-5.));
#1303=CARTESIAN_POINT('',(92.1,173.,-5.));
#1304=CARTESIAN_POINT('Origin',(84.100000000001,173.,-5.));
#1305=CARTESIAN_POINT('',(92.1000000000002,40.9999999999999,-5.));
#1306=CARTESIAN_POINT('Origin',(8.,129.,-5.));
#1307=CARTESIAN_POINT('',(0.,173.,-5.));
#1308=CARTESIAN_POINT('Origin',(8.,173.,-5.));
#1309=CARTESIAN_POINT('',(0.,129.,-5.));
#1310=CARTESIAN_POINT('Origin',(89.1000027412739,5.50001275479694,-4.83744333526858));
#1311=CARTESIAN_POINT('Origin',(89.1000027412734,6.50001275479701,-4.83744333526859));
#1312=CARTESIAN_POINT('Origin',(89.1000027412734,6.50001275479696,-10.0874433352651));
#1313=CARTESIAN_POINT('Origin',(89.1000027412734,6.50001275479696,-11.8374433352686));
#1314=CARTESIAN_POINT('Origin',(89.1000027412734,7.50001275479696,-11.8374433352686));
#1315=CARTESIAN_POINT('Origin',(0.,0.,0.));
#1316=CARTESIAN_POINT('',(23.0750003129244,0.,0.));
#1317=CARTESIAN_POINT('Origin',(3.00000274127344,7.00001275479701,-5.49994333525444));
#1318=CARTESIAN_POINT('Origin',(3.00000274127344,6.00001275479694,-5.49994333525445));
#1319=CARTESIAN_POINT('Origin',(3.00000274127344,6.00001275479698,-10.7499433352653));
#1320=CARTESIAN_POINT('Origin',(3.00000274127344,6.00001275479697,-12.4999433352689));
#1321=CARTESIAN_POINT('Origin',(3.00000274127344,5.00001275479696,-12.4999433352689));
#1322=CARTESIAN_POINT('Origin',(0.171572875281326,164.000012754775,-5.24997166763428));
#1323=CARTESIAN_POINT('Origin',(0.171572875281326,164.000012754775,-8.49994333526856));
#1324=CARTESIAN_POINT('Origin',(0.171572875281326,164.000012754775,-10.4999433352686));
#1325=CARTESIAN_POINT('Origin',(3.00000274127344,167.500012754797,-8.49994333526856));
#1326=CARTESIAN_POINT('Origin',(3.00000274127388,160.500012754797,-10.4999433352686));
#1327=CARTESIAN_POINT('Origin',(46.1500006258488,170.000002533197,0.));
#1328=CARTESIAN_POINT('',(50.1500006854534,165.000002458692,2.75));
#1329=CARTESIAN_POINT('',(46.1500006258488,170.000002533197,2.75));
#1330=CARTESIAN_POINT('',(46.1500006258488,170.000002533197,2.75));
#1331=CARTESIAN_POINT('',(50.1500006854534,165.000002458692,0.));
#1332=CARTESIAN_POINT('',(46.1500006258488,170.000002533197,0.));
#1333=CARTESIAN_POINT('Origin',(50.1500006854534,165.000002458692,0.));
#1334=CARTESIAN_POINT('',(48.1500006556511,165.000002458692,2.75));
#1335=CARTESIAN_POINT('',(50.1500006854534,165.000002458692,2.75));
#1336=CARTESIAN_POINT('',(48.1500006556511,165.000002458692,0.));
#1337=CARTESIAN_POINT('Origin',(48.1500006556511,165.000002458692,0.));
#1338=CARTESIAN_POINT('',(48.1500006556511,159.000002369285,2.75));
#1339=CARTESIAN_POINT('',(48.1500006556511,165.000002458692,2.75));
#1340=CARTESIAN_POINT('',(48.1500006556511,159.000002369285,0.));
#1341=CARTESIAN_POINT('Origin',(42.1500005662441,165.000002458692,0.));
#1342=CARTESIAN_POINT('',(42.1500005662441,165.000002458692,2.75));
#1343=CARTESIAN_POINT('',(42.1500005662441,165.000002458692,2.75));
#1344=CARTESIAN_POINT('',(42.1500005662441,165.000002458692,0.));
#1345=CARTESIAN_POINT('Origin',(44.1500005960464,165.000002458692,0.));
#1346=CARTESIAN_POINT('',(44.1500005960464,165.000002458692,2.75));
#1347=CARTESIAN_POINT('',(44.1500005960464,165.000002458692,2.75));
#1348=CARTESIAN_POINT('',(44.1500005960464,165.000002458692,0.));
#1349=CARTESIAN_POINT('Origin',(44.1500005960464,159.000002369285,0.));
#1350=CARTESIAN_POINT('',(44.1500005960464,159.000002369285,2.75));
#1351=CARTESIAN_POINT('',(44.1500005960464,159.000002369285,2.75));
#1352=CARTESIAN_POINT('',(44.1500005960464,159.000002369285,0.));
#1353=CARTESIAN_POINT('Origin',(48.1500006556511,159.000002369285,0.));
#1354=CARTESIAN_POINT('',(48.1500006556511,159.000002369285,2.75));
#1355=CARTESIAN_POINT('Origin',(0.,173.,0.));
#1356=CARTESIAN_POINT('',(0.,173.,0.));
#1357=CARTESIAN_POINT('Origin',(92.1,173.,0.));
#1358=CARTESIAN_POINT('',(92.1,173.,0.));
#1359=CARTESIAN_POINT('',(92.1,173.,0.));
#1360=CARTESIAN_POINT('Origin',(92.1,-3.,0.));
#1361=CARTESIAN_POINT('Origin',(46.1500006258488,164.500002451241,2.75));
#1362=CARTESIAN_POINT('Origin',(91.9284298660197,164.000012754797,-8.49994333526858));
#1363=CARTESIAN_POINT('Origin',(91.9284298660197,164.000012754797,-10.4999433352686));
#1364=CARTESIAN_POINT('Origin',(91.9284298660197,164.000012754797,-8.49994333526853));
#1365=CARTESIAN_POINT('Origin',(89.1000027412734,167.500012754797,-10.4999433352686));
#1366=CARTESIAN_POINT('Origin',(89.1000027412734,160.500012754783,-8.49994333526853));
#1367=CARTESIAN_POINT('Origin',(77.1,10.,0.));
#1368=CARTESIAN_POINT('',(71.1,10.,4.));
#1369=CARTESIAN_POINT('Origin',(77.1,10.,4.));
#1370=CARTESIAN_POINT('',(71.1,10.,0.));
#1371=CARTESIAN_POINT('Origin',(77.1,10.,4.));
#1372=CARTESIAN_POINT('Origin',(77.1,10.,0.));
#1373=UNCERTAINTY_MEASURE_WITH_UNIT(LENGTH_MEASURE(0.01),#1377,
'DISTANCE_ACCURACY_VALUE',
'Maximum model space distance between geometric entities at asserted c
onnectivities');
#1374=UNCERTAINTY_MEASURE_WITH_UNIT(LENGTH_MEASURE(0.01),#1377,
'DISTANCE_ACCURACY_VALUE',
'Maximum model space distance between geometric entities at asserted c
onnectivities');
#1375=(
GEOMETRIC_REPRESENTATION_CONTEXT(3)
GLOBAL_UNCERTAINTY_ASSIGNED_CONTEXT((#1373))
GLOBAL_UNIT_ASSIGNED_CONTEXT((#1377,#1379,#1380))
REPRESENTATION_CONTEXT('','3D')
);
#1376=(
GEOMETRIC_REPRESENTATION_CONTEXT(3)
GLOBAL_UNCERTAINTY_ASSIGNED_CONTEXT((#1374))
GLOBAL_UNIT_ASSIGNED_CONTEXT((#1377,#1379,#1380))
REPRESENTATION_CONTEXT('','3D')
);
#1377=(
LENGTH_UNIT()
NAMED_UNIT(*)
SI_UNIT(.MILLI.,.METRE.)
);
#1378=(
LENGTH_UNIT()
NAMED_UNIT(*)
SI_UNIT($,.METRE.)
);
#1379=(
NAMED_UNIT(*)
PLANE_ANGLE_UNIT()
SI_UNIT($,.RADIAN.)
);
#1380=(
NAMED_UNIT(*)
SI_UNIT($,.STERADIAN.)
SOLID_ANGLE_UNIT()
);
#1381=SHAPE_DEFINITION_REPRESENTATION(#1382,#1383);
#1382=PRODUCT_DEFINITION_SHAPE('',$,#1385);
#1383=SHAPE_REPRESENTATION('',(#823),#1375);
#1384=PRODUCT_DEFINITION_CONTEXT('part definition',#1389,'design');
#1385=PRODUCT_DEFINITION('2026-04-23-18-33-46-189','Cover_Calculator',#1386,
#1384);
#1386=PRODUCT_DEFINITION_FORMATION('',$,#1391);
#1387=PRODUCT_RELATED_PRODUCT_CATEGORY('Cover_Calculator',
'Cover_Calculator',(#1391));
#1388=APPLICATION_PROTOCOL_DEFINITION('international standard',
'automotive_design',2009,#1389);
#1389=APPLICATION_CONTEXT(
'Core Data for Automotive Mechanical Design Process');
#1390=PRODUCT_CONTEXT('part definition',#1389,'mechanical');
#1391=PRODUCT('2026-04-23-18-33-46-189','Cover_Calculator',$,(#1390));
#1392=PRESENTATION_STYLE_ASSIGNMENT((#1393));
#1393=SURFACE_STYLE_USAGE(.BOTH.,#1394);
#1394=SURFACE_SIDE_STYLE('',(#1395));
#1395=SURFACE_STYLE_FILL_AREA(#1396);
#1396=FILL_AREA_STYLE('Steel - Satin',(#1397));
#1397=FILL_AREA_STYLE_COLOUR('Steel - Satin',#1398);
#1398=COLOUR_RGB('Steel - Satin',0.627450980392157,0.627450980392157,0.627450980392157);
ENDSEC;
END-ISO-10303-21;
